<?xml version="1.0" encoding="utf-8"?>
<!-- Generator: Adobe Illustrator 24.0.1, SVG Export Plug-In . SVG Version: 6.00 Build 0)  -->
<svg version="1.1" id="Layer_1" xmlns="http://www.w3.org/2000/svg" xmlns:xlink="http://www.w3.org/1999/xlink" x="0px" y="0px"
	 viewBox="0 0 90.2 19.8" style="enable-background:new 0 0 90.2 19.8;" xml:space="preserve">
<style type="text/css">
	.st0{fill:#006838;}
</style>
<path class="st0" d="M24.4,0L19,18.2H21l1.2-4h5.5l1.1,4h5.3L29,0H24.4z M22.7,12.4L25,4.4l2.1,8.1H22.7z M16.4,0H8.3
	C4.1,0,2,1.5,2,4.5l0,12.2H0v0.6v0.9v1.6h1.5v-1.6H2h14.4H17v1.6h1.5v-1.6v-0.9v-0.6h-2V0z M11.1,16.7H7.2l0-12.1
	c0-2.1,0.8-3.1,2.4-3.1h1.5V16.7z M64.8,0l-5.4,18.2h2.1l1.2-4h5.5l1.1,4h5.3L69.4,0H64.8z M63.1,12.4l2.3-8.1l2.1,8.1H63.1z
	 M90.2,0v18.2h-5.3V9.2h-4.3v9.1h-5.3V0h5.3v7.3h4.3V0H90.2z M56.3,1.8l0,16.4H51V0h11.8v1.8H56.3z M44.6,0l5.1,18.2h-5.3L40.6,4.4
	l-4,13.9h-2.1L39.9,0H44.6z"/>
</svg>
