<?xml version="1.0" encoding="utf-8"?>
<!-- Generator: Adobe Illustrator 24.0.1, SVG Export Plug-In . SVG Version: 6.00 Build 0)  -->
<svg version="1.1" id="Layer_1" xmlns="http://www.w3.org/2000/svg" xmlns:xlink="http://www.w3.org/1999/xlink" x="0px" y="0px"
	 viewBox="0 0 90.2 104.4" style="enable-background:new 0 0 90.2 104.4;" xml:space="preserve">
<style type="text/css">
	.st0{fill:#FFFFFF;}
	.st1{fill:#57D03B;}
	.st2{fill:#D6DE23;}
	.st3{fill:#F3FF9B;stroke:#8BC53F;stroke-width:0.2393;stroke-miterlimit:10;}
	.st4{clip-path:url(#SVGID_1_);fill:#006838;}
	.st5{clip-path:url(#SVGID_2_);}
	.st6{clip-path:url(#SVGID_3_);fill:#57D03B;}
	.st7{clip-path:url(#SVGID_4_);}
	.st8{clip-path:url(#SVGID_5_);fill:#D6DE23;}
	.st9{clip-path:url(#SVGID_6_);}
	.st10{clip-path:url(#SVGID_7_);fill:#F9FF9D;}
	.st11{clip-path:url(#SVGID_8_);}
	.st12{clip-path:url(#SVGID_9_);fill:#FFFFFF;}
</style>
<path class="st0" d="M4.6,48.6c0-0.8,0.6-1.4,1.4-1.4c0.8,0,1.4,0.6,1.4,1.4C7.4,49.4,6.8,50,6,50C5.2,50,4.6,49.4,4.6,48.6z"/>
<path class="st1" d="M5.1,48.6c0-0.5,0.4-0.9,0.9-0.9c0.5,0,0.9,0.4,0.9,0.9c0,0.5-0.4,0.9-0.9,0.9C5.5,49.5,5.1,49.1,5.1,48.6z"/>
<path class="st2" d="M5.5,48.6c0-0.3,0.2-0.5,0.5-0.5c0.3,0,0.5,0.2,0.5,0.5c0,0.3-0.2,0.5-0.5,0.5C5.7,49.1,5.5,48.9,5.5,48.6z"/>
<g>
	<path class="st0" d="M16,71.9l1.8-1.9l-0.3-0.3l1-1.1l0.5,0.5l-0.6,0.6l1.6,1.5l0.6-0.6l0.5,0.5l-1,1.1L20,72
		c-0.4,0.1-0.7,0.2-1.3,0.8l-0.8,0.9L16,71.9z M17,72l0.7,0.7l0.5-0.5c0.4-0.4,0.7-0.7,1.2-0.8l-1-0.9L17,72z"/>
	<path class="st0" d="M14.1,67.3c0.9-0.8,1.5-0.8,2.3,0.1c0.8,0.9,0.7,1.5-0.3,2.3c-1,0.8-1.5,0.8-2.3-0.1
		C13.1,68.6,13.2,68.1,14.1,67.3z M15.6,69c0.7-0.6,0.7-0.8,0.3-1.3c-0.4-0.4-0.6-0.5-1.3,0.1c-0.7,0.6-0.7,0.8-0.3,1.3
		C14.7,69.6,14.9,69.6,15.6,69z"/>
	<path class="st0" d="M11.9,66.2L11.9,66.2c-0.5,0-0.7-0.1-1-0.5c-0.6-0.9-0.2-1.4,0.6-2c0.8-0.5,1.5-0.9,2.1,0.1
		c0.2,0.3,0.4,0.7,0.1,1.1l0,0l1.5-1l0.4,0.6L12,67.1l-0.4-0.6L11.9,66.2z M12.9,65.5c0.8-0.5,0.8-0.8,0.5-1.2
		c-0.3-0.5-0.6-0.5-1.3,0c-0.7,0.5-0.8,0.8-0.5,1.2C11.9,66,12.1,66,12.9,65.5z"/>
	<path class="st0" d="M9.5,59.9c1.1-0.6,1.7-0.5,2.2,0.6c0.6,1,0.3,1.6-0.8,2.1c-1.1,0.6-1.6,0.5-2.2-0.6C8.2,61,8.4,60.4,9.5,59.9z
		 M10.6,61.9c0.8-0.4,0.9-0.7,0.6-1.2c-0.3-0.5-0.5-0.6-1.3-0.2C9.1,61,9,61.2,9.3,61.7C9.5,62.2,9.8,62.3,10.6,61.9z"/>
	<path class="st0" d="M6.7,57.3L7.2,57l0.5,1.3l2.4-1l0.3,0.7l-3,1.2L6.7,57.3z"/>
	<path class="st0" d="M6,55.3l1.8-0.5c0.2-0.1,0.4-0.1,0.7-0.1l0,0l-2.9-0.6l-0.3-0.9l3.1-0.9L8.7,53l-1.8,0.5
		c-0.2,0.1-0.4,0.1-0.7,0.1l0,0L9,54.2l0.3,0.9L6.2,56L6,55.3z"/>
	<path class="st0" d="M5,44.5c-0.8,0-1-0.6-1-1.3c0-0.9,0.1-1.5,1.1-1.5l2.1,0l0,0.8l-0.4-0.1l0,0c0.5,0.2,0.5,0.5,0.5,1.1
		c0,0.8-0.2,1.2-1,1.2c-0.8,0-1-0.3-1.1-1.2c0-0.6,0.1-0.8,0.4-0.9l0,0l-0.6,0c-0.5,0-0.7,0.2-0.6,0.7c0,0.5,0.1,0.6,0.5,0.6L5,44.5
		z M5.8,43.1c0,0.5,0.2,0.7,0.5,0.6c0.4,0,0.5-0.2,0.5-0.7c0-0.5-0.1-0.8-0.5-0.8C5.9,42.4,5.8,42.5,5.8,43.1z"/>
	<path class="st0" d="M4.4,36.9l2.6,0.3l0-0.4l1.5,0.2l-0.1,0.7l-0.9-0.1l-0.2,2.2l0.9,0.1l-0.1,0.7l-1.5-0.2l0-0.3
		c-0.3-0.3-0.6-0.5-1.4-0.5l-1.2-0.1L4.4,36.9z M5,37.7l-0.1,1l0.7,0.1c0.5,0.1,1,0.2,1.3,0.5L7,38L5,37.7z"/>
	<path class="st0" d="M5.3,34.5L5.3,34.5C5,34.1,5,33.8,5.1,33.4c0.2-1.1,0.9-1.1,1.9-0.9c0.9,0.2,1.6,0.5,1.4,1.6
		c-0.1,0.4-0.2,0.8-0.7,0.9l0,0l1.8,0.4l-0.2,0.8l-4.5-1l0.2-0.8L5.3,34.5z M6.5,34.7c0.9,0.2,1.1,0.1,1.2-0.5c0.1-0.5,0-0.8-0.9-1
		c-0.9-0.2-1.1,0-1.2,0.5C5.5,34.3,5.6,34.5,6.5,34.7z"/>
	<path class="st0" d="M8.8,28.7l0.1,0c0.8,0.3,0.7,0.9,0.4,1.7c-0.4,1.1-0.9,1.3-2.1,0.9c-1.2-0.4-1.5-0.9-1.1-2
		c0.4-1.1,0.9-1.3,2-0.9l0.2,0.1l-0.7,2.1c0.8,0.3,1,0.2,1.1-0.4C9,29.8,9,29.5,8.7,29.4l-0.1,0L8.8,28.7z M6.8,29.5
		c-0.2,0.5,0,0.7,0.5,0.9l0.5-1.4C7.2,28.9,6.9,29,6.8,29.5z"/>
	<path class="st0" d="M10.4,24.8c0.8,0.4,1,0.9,0.5,1.9c-0.5,1-1,1.2-2.1,0.6c-1.2-0.5-1.4-1-0.9-2.1c0.3-0.7,0.8-1.2,1.6-0.8l0.1,0
		l-0.3,0.7l0,0c-0.4-0.2-0.6-0.1-0.8,0.4c-0.2,0.5-0.1,0.7,0.7,1.1c0.7,0.3,1,0.3,1.3-0.2c0.3-0.6,0.1-0.7-0.3-0.9L10.4,24.8z"/>
	<path class="st0" d="M10,23.1c-0.7-0.4-0.5-1-0.1-1.7c0.5-0.8,0.9-1.2,1.8-0.7l1.8,1.1l-0.4,0.7l-0.3-0.3l0,0
		c0.3,0.4,0.2,0.7-0.1,1.2c-0.4,0.7-0.8,0.9-1.5,0.5c-0.7-0.4-0.7-0.8-0.2-1.6c0.3-0.5,0.5-0.6,0.8-0.6l0,0l-0.5-0.3
		c-0.5-0.3-0.7-0.2-0.9,0.3c-0.2,0.4-0.2,0.6,0.1,0.8L10,23.1z M11.5,22.4c-0.3,0.4-0.2,0.6,0.1,0.8c0.3,0.2,0.5,0.1,0.7-0.3
		c0.3-0.5,0.3-0.7,0-0.9C11.9,21.8,11.8,21.9,11.5,22.4z"/>
	<path class="st0" d="M18.5,11.3l2.2,2.4l-0.6,0.5l-1.8-1.9L17.5,13l1.1,1.2c0.4,0.4,0.5,1,0.1,1.4c-0.2,0.1-0.3,0.3-0.4,0.3
		l-0.4-0.4c0.1,0,0.1-0.1,0.2-0.1c0.2-0.2,0.1-0.4-0.1-0.6l-1.5-1.6L18.5,11.3z"/>
	<path class="st0" d="M20.4,11c-0.5-0.7-0.1-1.1,0.5-1.6c0.7-0.5,1.3-0.8,1.9,0l1.3,1.7l-0.6,0.5l-0.2-0.4l0,0
		c0.1,0.5-0.1,0.7-0.6,1c-0.7,0.5-1.1,0.5-1.6-0.1c-0.5-0.7-0.4-1,0.4-1.6c0.5-0.4,0.7-0.4,1-0.2l0,0l-0.3-0.4
		c-0.3-0.4-0.5-0.4-1-0.1c-0.4,0.3-0.4,0.4-0.2,0.8L20.4,11z M21.9,10.9c-0.4,0.3-0.4,0.5-0.2,0.8c0.2,0.3,0.4,0.3,0.8,0
		c0.4-0.3,0.6-0.5,0.3-0.9C22.6,10.5,22.4,10.5,21.9,10.9z"/>
	<path class="st0" d="M24.8,8.3L26,7.6l-0.6-1.1l0.7-0.4L27.7,9L27,9.4l-0.7-1.2l-1.2,0.7l0.7,1.2l-0.7,0.4l-1.6-2.8l0.7-0.4
		L24.8,8.3z"/>
	<path class="st0" d="M30.3,4.2l1,2.4l0.4-0.2l0.6,1.4l-0.7,0.3l-0.3-0.8l-2.1,0.9L29.6,9L29,9.3l-0.6-1.4l0.3-0.1
		c0.1-0.4,0.1-0.7-0.2-1.5L28,5.2L30.3,4.2z M29.8,5.1l-0.9,0.4l0.3,0.6c0.2,0.5,0.3,1,0.2,1.4l1.3-0.5L29.8,5.1z"/>
	<path class="st0" d="M33.5,5.9l1.1-0.3L33.9,3l0.7-0.2l0.7,2.5L36.5,5l-0.7-2.5l0.7-0.2l0.9,3.1l-4.5,1.2l-0.9-3.1l0.7-0.2
		L33.5,5.9z"/>
	<path class="st0" d="M38.3,2.9c-0.1-0.8,0.5-1.1,1.2-1.2c0.9-0.1,1.5-0.1,1.7,0.9l0.3,2.1l-0.8,0.1V4.5l0,0c-0.1,0.5-0.5,0.6-1,0.6
		c-0.8,0.1-1.2-0.1-1.3-0.8c-0.1-0.8,0.2-1.1,1.1-1.2c0.6-0.1,0.8,0,1,0.3l0,0l-0.1-0.5c-0.1-0.5-0.3-0.6-0.8-0.6
		c-0.5,0.1-0.6,0.2-0.5,0.6L38.3,2.9z M39.8,3.6c-0.5,0.1-0.6,0.2-0.6,0.6c0,0.4,0.2,0.5,0.7,0.4c0.5-0.1,0.8-0.2,0.7-0.6
		C40.6,3.6,40.4,3.5,39.8,3.6z"/>
	<path class="st0" d="M45.4,0l0,1.8c0.2-0.4,0.5-0.5,0.8-0.5c0.8,0,1.2,0.3,1.2,1.6c0,1.2-0.3,1.8-1.1,1.8c-0.4,0-0.7-0.1-0.9-0.5
		l0,1.8l-0.8,0l0-1.8c-0.2,0.4-0.5,0.5-0.9,0.5c-0.9,0-1.2-0.5-1.2-1.7c0-1.3,0.4-1.6,1.2-1.6c0.3,0,0.6,0.1,0.8,0.4l0-1.8L45.4,0z
		 M43.4,3c0,0.8,0.1,1.1,0.7,1.1c0.6,0,0.6-0.3,0.6-1.1C44.7,2.1,44.6,2,44,2C43.5,2,43.4,2.1,43.4,3z M45.5,3
		c0,0.8,0.1,1.1,0.6,1.1c0.6,0,0.6-0.3,0.6-1.1c0-0.9-0.1-1.1-0.7-1C45.6,1.9,45.5,2.1,45.5,3z"/>
	<path class="st0" d="M51.6,1.8l-0.1,0.6l-1-0.1l-0.3,2.6l-0.8-0.1l0.3-2.6l-1-0.1l0.1-0.6L51.6,1.8z"/>
	<path class="st0" d="M61,4.4c-0.2,2-0.3,2.7-0.3,2.8l0,0c0.1-0.1,0.6-0.8,1.8-2.2l1.1,0.5l-1.3,3l-0.7-0.3l0.8-1.8
		c0.1-0.3,0.3-0.5,0.4-0.8l0,0l-2,2.2l-0.7-0.3l0.3-3l0,0c-0.1,0.3-0.2,0.6-0.3,0.8l-0.8,1.8l-0.7-0.3l1.3-3L61,4.4z"/>
	<path class="st0" d="M64.6,7.1c0.4-0.7,1-0.5,1.7-0.2C67,7.4,67.5,7.8,67,8.7l-1.1,1.8l-0.7-0.4l0.3-0.4l0,0
		c-0.4,0.3-0.7,0.2-1.2-0.1c-0.7-0.4-0.9-0.8-0.5-1.5c0.4-0.7,0.8-0.7,1.6-0.3C65.9,8.3,66,8.5,66,8.8l0,0l0.3-0.5
		c0.3-0.5,0.2-0.7-0.3-0.9c-0.4-0.2-0.6-0.2-0.8,0.1L64.6,7.1z M65.3,8.6c-0.4-0.3-0.6-0.2-0.8,0.1c-0.2,0.3-0.1,0.5,0.3,0.7
		c0.5,0.3,0.7,0.3,0.9,0C65.9,9,65.8,8.9,65.3,8.6z"/>
	<path class="st0" d="M69.3,9.6L69.3,9.6c0.5-0.2,0.7-0.1,1.1,0.2c0.9,0.7,0.7,1.3,0.1,2.1c-0.6,0.7-1.1,1.3-2,0.6
		c-0.3-0.2-0.6-0.5-0.5-1l0,0l-1.1,1.5l-0.6-0.5l2.8-3.7l0.6,0.5L69.3,9.6z M68.6,10.5c-0.5,0.7-0.5,1-0.1,1.3
		c0.4,0.3,0.7,0.3,1.2-0.4c0.5-0.7,0.5-1,0-1.3C69.4,9.7,69.1,9.8,68.6,10.5z"/>
	<path class="st0" d="M71.3,14l0.8,0.8l1.8-1.9l0.6,0.5l-1.8,1.9l0.8,0.8l1.8-1.9l0.6,0.5l-2.3,2.3l-3.3-3.2l2.3-2.3l0.6,0.5
		L71.3,14z"/>
	<path class="st0" d="M77.1,17L77.1,17c0.5,0,0.7,0.1,1,0.4c0.7,0.9,0.3,1.4-0.5,2c-0.7,0.6-1.4,1-2.1,0.1c-0.3-0.3-0.4-0.7-0.2-1.1
		l0,0l-1.4,1.1L73.4,19l3.6-2.9l0.5,0.6L77.1,17z M76.2,17.7c-0.7,0.6-0.7,0.8-0.4,1.2c0.3,0.4,0.6,0.5,1.3-0.1
		c0.7-0.6,0.7-0.8,0.4-1.2C77.2,17.2,76.9,17.2,76.2,17.7z"/>
	<path class="st0" d="M80,20.2l-1.9,2.2l2.7-0.9l0.4,0.7l-3.4,1.1c-0.7,0.2-1.3,0.4-1.7-0.4c-0.1-0.1-0.2-0.3-0.2-0.3l0.5-0.3
		c0,0.1,0,0.1,0.1,0.2c0.2,0.4,0.6,0.3,1.1,0.1l-0.2-0.3l2.2-2.6L80,20.2z"/>
	<path class="st0" d="M83,25.4l-0.5,0.3L82,24.8l-2.4,1.2l-0.3-0.7l2.4-1.2l-0.5-0.9l0.5-0.3L83,25.4z"/>
	<path class="st0" d="M82.6,27.8l0.4,1c0.2,0.5,0,1-0.6,1.2c-0.7,0.2-1.1,0-1.3-0.5l-0.6-1.7l3-1.1l0.3,0.7L82.6,27.8z M81.3,28.3
		l0.3,0.7c0.1,0.3,0.3,0.4,0.6,0.3c0.3-0.1,0.4-0.3,0.3-0.6L82.1,28L81.3,28.3z M81.9,31.6l-0.3-0.7l3-1.1l0.3,0.7L81.9,31.6z"/>
	<path class="st0" d="M85.4,40.1l0.1,1.4l1.2-0.1l0,0.8l-3.2,0.2l0-0.8l1.4-0.1l-0.1-1.4l-1.4,0.1l0-0.8l3.2-0.2l0,0.8L85.4,40.1z"
		/>
	<path class="st0" d="M85.8,43.7c0.8,0,0.9,0.7,0.9,1.4c-0.1,0.9-0.2,1.5-1.2,1.4l-2.1-0.1l0-0.8l0.4,0.1l0,0
		c-0.4-0.2-0.5-0.6-0.4-1.1c0-0.8,0.3-1.2,1.1-1.1c0.8,0,1,0.4,1,1.3c0,0.6-0.2,0.8-0.5,0.9l0,0l0.6,0c0.5,0,0.7-0.1,0.7-0.7
		c0-0.5-0.1-0.6-0.4-0.6L85.8,43.7z M84.9,45c0-0.5-0.1-0.7-0.5-0.7c-0.4,0-0.5,0.1-0.5,0.6c0,0.5,0.1,0.8,0.4,0.8
		C84.7,45.8,84.8,45.6,84.9,45z"/>
	<path class="st0" d="M86.4,48.3l-0.3,1.8c-0.1,0.7-0.5,1-1,0.9c-0.3-0.1-0.5-0.3-0.6-0.7l0,0c-0.1,0.4-0.4,0.6-0.9,0.5
		c-0.6-0.1-0.8-0.4-0.7-1.1l0.3-1.9L86.4,48.3z M83.6,48.6l-0.1,0.8c-0.1,0.4,0.1,0.5,0.3,0.6c0.3,0.1,0.4-0.1,0.5-0.4l0.1-0.9
		L83.6,48.6z M84.9,48.8l-0.1,0.7c-0.1,0.4,0,0.5,0.3,0.6c0.3,0,0.4-0.1,0.5-0.4l0.1-0.8L84.9,48.8z"/>
	<path class="st0" d="M85.3,53.4l-1.8-0.5c-0.2-0.1-0.4-0.2-0.7-0.3l0,0l2.1,2l-0.3,0.9l-3.1-0.9l0.2-0.7l1.8,0.5
		c0.2,0.1,0.4,0.2,0.7,0.3l0,0l-2.1-2l0.3-0.9l3.1,0.9L85.3,53.4z"/>
	<path class="st0" d="M83.4,59l-0.6-0.2l0.5-1.3l-2.5-1l0.3-0.7l3,1.2L83.4,59z"/>
	<path class="st0" d="M82,59.8c0.7,0.4,0.6,1,0.3,1.7c-0.4,0.8-0.8,1.3-1.7,0.8l-1.9-1l0.4-0.7l0.4,0.3l0,0c-0.3-0.4-0.2-0.7,0-1.2
		c0.4-0.7,0.8-0.9,1.4-0.6c0.7,0.4,0.8,0.8,0.3,1.6c-0.3,0.5-0.5,0.6-0.8,0.6l0,0l0.5,0.3c0.5,0.2,0.7,0.1,0.9-0.3
		c0.2-0.4,0.2-0.6-0.1-0.8L82,59.8z M80.7,60.6c0.2-0.5,0.2-0.6-0.2-0.8c-0.3-0.2-0.5-0.1-0.7,0.4c-0.2,0.5-0.3,0.7,0.1,0.9
		C80.2,61.3,80.4,61.2,80.7,60.6z"/>
	<path class="st0" d="M77.3,64.6l2.2,1.5l-0.4,0.6l-2.2-1.5l-0.2,0.3l-1.2-0.8l0.4-0.6l0.7,0.5l1.4-2.2l2.7,1.8l-0.4,0.6l-2.2-1.5
		L77.3,64.6z"/>
	<path class="st0" d="M77.6,68.7l-1.4-1.2c-0.2-0.1-0.3-0.3-0.5-0.5l0,0l1.1,2.7l-0.6,0.7l-2.5-2.1l0.5-0.6l1.4,1.2
		c0.2,0.1,0.3,0.3,0.5,0.5l0,0l-1.1-2.7l0.6-0.7l2.5,2.1L77.6,68.7z"/>
	<path class="st0" d="M72.6,71.1l-0.3-1.4l0.6-0.6l0.3,1.5c0.4-0.2,0.8-0.2,1.1,0.2c0.5,0.5,0.4,1,0,1.3L73,73.5l-2.2-2.3l0.6-0.5
		l0.9,0.9L72.6,71.1z M73.2,72.5l0.6-0.6c0.2-0.2,0.2-0.4,0-0.6c-0.2-0.3-0.4-0.2-0.7,0l-0.5,0.5L73.2,72.5z"/>
</g>
<path class="st0" d="M24.4,84.5L19,102.8H21l1.2-4h5.5l1.1,4h5.3L29,84.5H24.4z M22.7,97l2.3-8.1l2.1,8.1H22.7z M16.4,84.5H8.3
	C4.1,84.5,2,86,2,89l0,12.2H0v0.6v0.9v1.6h1.5v-1.6H2h14.4H17v1.6h1.5v-1.6v-0.9v-0.6h-2V84.5z M11.1,101.2H7.2l0-12.1
	C7.2,87.1,8,86,9.6,86h1.5V101.2z M64.8,84.5l-5.4,18.2h2.1l1.2-4h5.5l1.1,4h5.3l-5.1-18.2H64.8z M63.1,97l2.3-8.1l2.1,8.1H63.1z
	 M90.2,84.5v18.2h-5.3v-9.1h-4.3v9.1h-5.3V84.5h5.3v7.3h4.3v-7.3H90.2z M56.3,86.4l0,16.4H51V84.5h11.8v1.8H56.3z M44.6,84.5
	l5.1,18.2h-5.3l-3.7-13.9l-4,13.9h-2.1l5.4-18.2H44.6z"/>
<circle class="st0" cx="14.6" cy="17.4" r="1.4"/>
<circle class="st1" cx="14.6" cy="17.4" r="0.9"/>
<circle class="st2" cx="14.6" cy="17.4" r="0.5"/>
<path class="st0" d="M56.1,3c0.7,0.3,1,1.1,0.7,1.8c-0.3,0.7-1.1,1-1.8,0.7c-0.7-0.3-1-1.1-0.7-1.8C54.5,3,55.3,2.7,56.1,3z"/>
<path class="st1" d="M55.8,3.4c0.4,0.2,0.6,0.7,0.4,1.2c-0.2,0.4-0.7,0.6-1.2,0.4c-0.4-0.2-0.6-0.7-0.4-1.2
	C54.9,3.5,55.4,3.3,55.8,3.4z"/>
<path class="st2" d="M55.7,3.8c0.3,0.1,0.4,0.4,0.3,0.7c-0.1,0.3-0.4,0.4-0.7,0.3C55,4.6,54.9,4.3,55,4.1
	C55.1,3.8,55.4,3.7,55.7,3.8z"/>
<path class="st0" d="M85.9,35.3c0,0.8-0.7,1.4-1.4,1.4c-0.8,0-1.4-0.7-1.4-1.4c0-0.8,0.7-1.4,1.4-1.4C85.3,33.9,85.9,34.6,85.9,35.3
	z"/>
<path class="st1" d="M85.4,35.3c0,0.5-0.4,0.9-0.9,0.9c-0.5,0-0.9-0.4-0.9-0.9c0-0.5,0.4-0.9,0.9-0.9C85,34.4,85.4,34.8,85.4,35.3z"
	/>
<path class="st2" d="M85,35.3c0,0.3-0.2,0.5-0.5,0.5c-0.3,0-0.5-0.2-0.5-0.5c0-0.3,0.2-0.5,0.5-0.5C84.8,34.8,85,35,85,35.3z"/>
<g>
	<circle class="st3" cx="45.1" cy="41.5" r="31"/>
	<g>
		<g>
			<defs>
				<circle id="SVGID_19_" cx="45.1" cy="41.5" r="29.4"/>
			</defs>
			<clipPath id="SVGID_1_">
				<use xlink:href="#SVGID_19_"  style="overflow:visible;"/>
			</clipPath>
			<path class="st4" d="M85.8,96.1C77,93.9,71,79,65.1,76s-14.4,8.2-21.2,8.2c-6.7,0-14.2-7.9-19.6-6.8c-5.3,1-8.5,8.4-15.2,8.4
				C2.5,85.9-3,74.2,3.2,59.8C9.4,45.4,6.4,25.6,16.9,16s20.3,3.4,41.9,3.4c16.3,0,13.4,17.1,19.8,24s19.8,0.3,20.9,11
				c0.9,9-7.5,9.9-8,15C90.9,74.6,100.3,99.9,85.8,96.1z"/>
		</g>
		<g>
			<defs>
				<circle id="SVGID_21_" cx="45.1" cy="41.5" r="29.4"/>
			</defs>
			<clipPath id="SVGID_2_">
				<use xlink:href="#SVGID_21_"  style="overflow:visible;"/>
			</clipPath>
			<path class="st5" d="M54.3,70.5c-1.1,0-2.1,0.5-3.1,0.9c-4,1.7-7.5,5.2-11.7,5.6c-4.6,0.6-9.8-4.2-13.6-3.1
				c-3.8,1-6.2,6.2-11.1,6.2c-6-0.1-9.1-10.7-6.3-22.8s1.8-27.8,10.8-35.2c9-7.3,16.2,2.1,32.3,0.9c10.8-1,12,8,15.2,15.3
				c0.6,1.2,1.2,2.3,1.9,3.3c5.2,6.4,15.1,3.9,15,12.1c0,3.1-1.5,5.2-3.4,7c-1,1-2,1.7-2.8,3.1c-0.8,1.4-1.2,3.1-2.1,4.4
				c-1.1,1.6-2.9,2.3-4.6,2.5c-1.7,0.2-3.4-0.2-5.1-0.5c-2.9-0.4-5.8-0.6-8.7-0.3C56.3,69.9,55.4,70.4,54.3,70.5z"/>
		</g>
		<g>
			<defs>
				<circle id="SVGID_23_" cx="45.1" cy="41.5" r="29.4"/>
			</defs>
			<clipPath id="SVGID_3_">
				<use xlink:href="#SVGID_23_"  style="overflow:visible;"/>
			</clipPath>
			<path class="st6" d="M54.2,70.3c-1.1,0-2.1,0.5-3.1,0.9c-4,1.7-7.5,5.2-11.7,5.6c-4.6,0.6-9.8-4.2-13.6-3.1
				c-3.8,1-6.2,6.2-11.1,6.2c-6-0.1-9.1-10.7-6.3-22.8s1.8-27.8,10.8-35.2c9-7.3,16.2,2.1,32.3,0.9c10.9-1,12,8,15.2,15.3
				c0.6,1.2,1.2,2.3,1.9,3.3c5.2,6.4,15.1,3.9,15,12.1c0,3.1-1.5,5.2-3.4,7c-1,1-2,1.7-2.8,3.1c-0.8,1.4-1.2,3.1-2.1,4.4
				c-1.1,1.6-2.9,2.3-4.6,2.5c-1.7,0.2-3.4-0.2-5.1-0.5c-2.9-0.4-5.8-0.6-8.7-0.3C56.2,69.6,55.2,70.2,54.2,70.3z"/>
		</g>
		<g>
			<defs>
				<circle id="SVGID_25_" cx="45.1" cy="41.5" r="29.4"/>
			</defs>
			<clipPath id="SVGID_4_">
				<use xlink:href="#SVGID_25_"  style="overflow:visible;"/>
			</clipPath>
			<path class="st7" d="M43.2,63.7c-2.5,0-5.6,4.9-8.3,6c-2.6,1.1-5.4-0.5-7.7,0.6c-2.2,1-3.9,4-6.9,3.9c-5.4-0.2-6-9.8-6.6-19.8
				c-0.6-10.1,0.4-21.5,8-26.5s12,0.7,22.7-1.6c8.2-1.8,10.3,4,13.1,10.6c0.4,1,0.9,1.9,1.4,2.8c3.8,5.9,10.4,7.4,9.2,13.3
				c-0.9,4.1-4.4,4.9-5.7,6.1c-2,1.8-1,6.9-7.7,7.2c-0.3,0-0.6,0.1-1,0C51.1,65.6,46.5,61.5,43.2,63.7z"/>
		</g>
		<g>
			<defs>
				<circle id="SVGID_27_" cx="45.1" cy="41.5" r="29.4"/>
			</defs>
			<clipPath id="SVGID_5_">
				<use xlink:href="#SVGID_27_"  style="overflow:visible;"/>
			</clipPath>
			<path class="st8" d="M43,63.3c-2.5,0-5.6,4.9-8.3,6c-2.6,1.1-5.4-0.5-7.7,0.6c-2.2,1-3.9,4-6.9,3.9c-5.5-0.1-6-9.7-6.7-19.8
				s0.4-21.5,8-26.5s12,0.7,22.7-1.6c8.2-1.8,10.3,4,13.1,10.6c0.4,1,0.9,1.9,1.4,2.8c3.8,5.9,10.4,7.4,9.2,13.3
				c-0.9,4.1-4.4,4.9-5.7,6.1c-2,1.8-1,6.9-7.7,7.2c-0.3,0-0.6,0.1-1,0C50.9,65.3,46.4,61.3,43,63.3z"/>
		</g>
		<g>
			<defs>
				<circle id="SVGID_29_" cx="45.1" cy="41.5" r="29.4"/>
			</defs>
			<clipPath id="SVGID_6_">
				<use xlink:href="#SVGID_29_"  style="overflow:visible;"/>
			</clipPath>
			<path class="st9" d="M38.6,51.4c0,0-4.1,1.4-6.4,6C29.9,62,29.6,68.2,25.9,68c-4.9-0.2-3-8.8-7.1-16.7c-4-8-1-15.1,5.2-17.8
				c4.6-2.9,11.4-2.8,16.4-1.9c0.4,0.1,0.9,0.2,1.3,0.3c4.1,1.7,6.6,3.8,9.2,8.4c1.6,2.9,4.3,8.4,1.6,11.6
				C47.8,57.3,42.7,48.6,38.6,51.4z"/>
		</g>
		<g>
			<defs>
				<circle id="SVGID_31_" cx="45.1" cy="41.5" r="29.4"/>
			</defs>
			<clipPath id="SVGID_7_">
				<use xlink:href="#SVGID_31_"  style="overflow:visible;"/>
			</clipPath>
			<path class="st10" d="M38.4,51.2c0,0-4.1,1.4-6.4,6c-2.2,4.6-2.5,10.8-6.3,10.7c-4.9-0.2-3-8.8-7.1-16.7c-4-8-1-15.1,5.2-17.8
				c4.6-2.9,11.4-2.8,16.4-1.9c0.4,0.1,0.9,0.2,1.3,0.3c4.1,1.7,6.6,3.8,9.2,8.4c1.6,2.9,4.3,8.4,1.6,11.6
				C47.7,57,42.6,48.4,38.4,51.2z"/>
		</g>
		<g>
			<defs>
				<circle id="SVGID_33_" cx="45.1" cy="41.5" r="29.4"/>
			</defs>
			<clipPath id="SVGID_8_">
				<use xlink:href="#SVGID_33_"  style="overflow:visible;"/>
			</clipPath>
			<path class="st11" d="M25.1,45.6c1.3,3.7,4.6,5.6,7.6,3.4c2.7-2,2.1-2.6,6-3.4c3.7-0.8,2.2-6.7-5.2-7.9
				C26.1,36.5,24,42.3,25.1,45.6z"/>
		</g>
		<g>
			<defs>
				<circle id="SVGID_35_" cx="45.1" cy="41.5" r="29.4"/>
			</defs>
			<clipPath id="SVGID_9_">
				<use xlink:href="#SVGID_35_"  style="overflow:visible;"/>
			</clipPath>
			<path class="st12" d="M25,45.4c1.3,3.7,4.6,5.6,7.6,3.4c2.7-2,2.1-2.6,6-3.4c3.7-0.8,2.2-6.7-5.2-7.9C25.9,36.3,23.9,42,25,45.4z
				"/>
		</g>
	</g>
	<path class="st0" d="M45.1,74.4c-18.1,0-32.9-14.8-32.9-32.9C12.2,23.4,27,8.6,45.1,8.6C63.2,8.6,78,23.4,78,41.5
		C78,59.7,63.2,74.4,45.1,74.4z M45.1,9.8c-17.5,0-31.7,14.2-31.7,31.7s14.2,31.7,31.7,31.7S76.8,59,76.8,41.5S62.6,9.8,45.1,9.8z"
		/>
	<path class="st0" d="M45.1,75.4c-9,0-17.6-3.5-24-9.9s-9.9-14.9-9.9-24s3.5-17.6,9.9-24c6.4-6.4,14.9-9.9,24-9.9s17.6,3.5,24,9.9
		c6.4,6.4,9.9,14.9,9.9,24s-3.5,17.6-9.9,24S54.1,75.4,45.1,75.4z M45.1,7.8c-18.6,0-33.8,15.1-33.8,33.8
		c0,18.6,15.1,33.8,33.8,33.8c18.6,0,33.8-15.1,33.8-33.8C78.9,22.9,63.7,7.8,45.1,7.8z"/>
	<polygon points="29.3,42.7 31.9,44 29.3,45.4 	"/>
	<path d="M45.3,33.7l-0.6,1.1l1.3-0.6C45.7,34.1,45.5,33.8,45.3,33.7z"/>
	<path d="M38.1,39.3l-0.6,1.2l1.3-0.6C38.6,39.7,38.3,39.6,38.1,39.3z"/>
	<path d="M52.5,27.7L51.9,29l1.3-0.6C53,28.2,52.7,27.9,52.5,27.7z"/>
	<path d="M57.6,23.5l-0.5,1l1.4-0.6C58.2,23.8,57.9,23.6,57.6,23.5z"/>
	<path d="M63.2,20.1l-0.7,1l1.8-0.7C63.9,20.2,63.6,20.1,63.2,20.1z"/>
</g>
</svg>
