<?xml version="1.0" encoding="utf-8"?>
<!-- Generator: Adobe Illustrator 24.0.1, SVG Export Plug-In . SVG Version: 6.00 Build 0)  -->
<svg version="1.1" id="Layer_1" xmlns="http://www.w3.org/2000/svg" xmlns:xlink="http://www.w3.org/1999/xlink" x="0px" y="0px"
	 viewBox="0 0 274.7 85" style="enable-background:new 0 0 274.7 85;" xml:space="preserve">
<style type="text/css">
	.st0{fill:#F3FF9B;stroke:#8BC53F;stroke-width:0.3007;stroke-miterlimit:10;}
	.st1{fill:none;}
	.st2{fill:#006838;}
	.st3{fill:#57D03B;}
	.st4{fill:#D6DE23;}
	.st5{fill:#F9FF9D;}
	.st6{fill:#FFFFFF;}
	.st7{fill:none;stroke:#006838;stroke-width:1.5037;stroke-miterlimit:10;}
	.st8{fill:none;stroke:#37B34A;stroke-width:0.1504;stroke-miterlimit:10;}
</style>
<g>
	<circle class="st0" cx="42.5" cy="42.5" r="38.9"/>
	<circle class="st1" cx="42.5" cy="42.5" r="37"/>
	<circle class="st1" cx="42.5" cy="42.5" r="37"/>
	<circle class="st1" cx="42.5" cy="42.5" r="37"/>
	<circle class="st1" cx="42.5" cy="42.5" r="37"/>
	<circle class="st1" cx="42.5" cy="42.5" r="37"/>
	<circle class="st1" cx="42.5" cy="42.5" r="37"/>
	<circle class="st1" cx="42.5" cy="42.5" r="37"/>
	<circle class="st1" cx="42.5" cy="42.5" r="37"/>
	<path d="M17.4,47.6c1.6,4.7,5.8,7.1,9.6,4.3c3.4-2.5,2.7-3.3,7.5-4.3c4.7-1,2.8-8.4-6.5-9.9C18.6,36.2,16,43.4,17.4,47.6z"/>
	<circle class="st1" cx="42.5" cy="42.5" r="37"/>
	<circle class="st1" cx="42.5" cy="42.5" r="37"/>
	<path class="st2" d="M79.5,42.5c0-9.9-3.9-18.8-10.1-25.4c-2.5-1.5-5.6-2.4-9.8-2.4c-13.2,0-23-3.9-31-6.5
		C15.1,13.7,5.5,27,5.5,42.5c0,20.4,16.6,37,37,37S79.5,62.9,79.5,42.5z"/>
	<path d="M79.2,47.3c-2.5-1.1-5-2.5-6.9-4.8c-0.9-1.2-1.7-2.6-2.4-4.1c-4-9.1-5.5-20.4-19.1-19.2c-15.4,1.2-24.3-5.3-32.6-4.6
		C10.4,21.4,5.5,31.4,5.5,42.5c0,20.4,16.6,37,37,37C61.3,79.5,76.8,65.5,79.2,47.3z"/>
	<path class="st3" d="M79.2,47.1c-2.6-1.1-5.1-2.5-7.1-4.9c-0.9-1.2-1.7-2.6-2.4-4.1c-4-9.1-5.4-20.4-19.1-19.2
		c-15,1.2-23.9-5-32-4.6c-8,6.8-13.1,16.9-13.1,28.2c0,20.4,16.6,37,37,37C61.4,79.5,76.9,65.4,79.2,47.1z"/>
	<path d="M71.3,56.7c1.6-7.4-6.7-9.3-11.5-16.7c-0.7-1.1-1.3-2.3-1.8-3.5c-3.5-8.3-6.2-15.6-16.5-13.3c-13.4,2.9-19-4.3-28.5,2
		c-2.5,1.7-4.4,3.9-5.9,6.4c-1.1,3.4-1.6,7.1-1.6,10.9c0,16.2,10.4,29.9,24.9,35c3.2-1.8,6.8-7.2,9.7-7.2c4.2-2.7,9.9,2.4,13.1,3.2
		c0.4,0.1,0.8,0,1.2,0c8.4-0.4,7.2-6.9,9.7-9.1C65.8,62.9,70.2,61.8,71.3,56.7z"/>
	<path class="st4" d="M71,56.3c1.6-7.4-6.7-9.3-11.5-16.7c-0.7-1.1-1.3-2.3-1.8-3.5c-3.5-8.3-6.2-15.6-16.5-13.3
		c-13.4,2.9-19-4.3-28.5,2c-2,1.3-3.6,3-5,5c-1.5,4-2.2,8.2-2.2,12.7c0,16,10.1,29.6,24.3,34.8c3.2-1.6,7.1-7.4,10.1-7.4
		c4.2-2.6,9.9,2.4,13,3.2c0.4,0.1,0.8,0,1.2,0c8.4-0.4,7.2-6.9,9.7-9.1C65.5,62.5,69.9,61.4,71,56.3z"/>
	<path d="M38.2,30.4c-0.5-0.2-1.1-0.3-1.6-0.4c-6.3-1.1-14.8-1.3-20.6,2.4C8.2,35.8,4.5,44.8,9.5,54.8c1.7,3.2,2.5,6.6,3.2,9.6
		c2.6,3.5,5.8,6.5,9.4,9c1.6-2.7,2.4-7.2,4.2-10.9c2.8-5.8,8-7.5,8-7.5c5.2-3.5,11.6,7.4,17.4,0.6c3.4-4,0-11-2-14.6
		C46.5,35.2,43.3,32.5,38.2,30.4z"/>
	<path class="st5" d="M38,30.1c-0.5-0.2-1.1-0.3-1.6-0.4c-6.3-1.1-14.8-1.3-20.6,2.4C8,35.5,4.3,44.5,9.3,54.5
		c1.7,3.3,2.5,6.6,3.2,9.6c2.6,3.6,5.7,6.6,9.4,9.1c1.6-2.7,2.4-7.3,4.3-11.1c2.8-5.8,8-7.5,8-7.5c5.2-3.5,11.7,7.3,17.4,0.6
		c3.4-4,0-11-2-14.6C46.3,34.9,43.1,32.2,38,30.1z"/>
	<path class="st6" d="M17.2,47.3c1.6,4.7,5.8,7.1,9.6,4.3c3.4-2.5,2.7-3.3,7.5-4.3c4.7-1,2.8-8.4-6.5-9.9
		C18.4,35.9,15.8,43.1,17.2,47.3z"/>
	<circle class="st7" cx="42.5" cy="42.5" r="40.6"/>
	<circle class="st8" cx="42.5" cy="42.5" r="42.5"/>
	<polygon points="22.6,43.9 25.9,45.6 22.6,47.3 	"/>
	<path d="M42.7,32.6L42,34l1.6-0.8C43.3,33.1,43,32.8,42.7,32.6z"/>
	<path d="M33.7,39.7L33,41.2l1.6-0.8C34.3,40.2,34,40,33.7,39.7z"/>
	<path d="M51.8,25.1L51,26.7l1.6-0.7C52.4,25.7,52.1,25.4,51.8,25.1z"/>
	<path d="M58.2,19.8L57.6,21l1.7-0.7C59,20.2,58.6,20,58.2,19.8z"/>
	<path d="M65.2,15.5l-0.9,1.3l2.2-0.9C66.1,15.7,65.7,15.6,65.2,15.5z"/>
</g>
<path class="st2" d="M144.3,22.9L133.6,59h4l2.4-7.9h10.9L153,59h10.5l-10.1-36.1H144.3z M140.9,47.5l4.6-15.9l4.2,16.1h-8.7V47.5z
	 M128.4,22.9h-16.1c-8.3,0-12.5,3-12.5,8.9V56h-4v1.2V59v3.2h3V59h1h28.5h1.2v3.2h3V59v-1.8V56h-4V22.9H128.4z M117.9,56h-7.7V32
	c0-4.2,1.6-6.1,4.8-6.1h3V56z M224.4,22.9L213.7,59h4.2l2.4-7.9h10.9l2.2,7.9h10.5l-10.3-36.1H224.4z M221,47.5l4.6-16.1l4.2,16.1
	H221z M274.7,22.9V59h-10.5V41.1h-8.5v18h-10.5V22.9h10.5v14.5h8.5V22.9H274.7z M207.5,26.4V59H197V22.9h23.4v3.6H207.5z
	 M184.3,22.9L194.5,59h-10.5l-7.5-27.4l-7.9,27.6h-4.2L175,22.9H184.3z"/>
</svg>
