<?xml version="1.0" encoding="utf-8"?>
<!-- Generator: Adobe Illustrator 24.0.1, SVG Export Plug-In . SVG Version: 6.00 Build 0)  -->
<svg version="1.1" id="Layer_1" xmlns="http://www.w3.org/2000/svg" xmlns:xlink="http://www.w3.org/1999/xlink" x="0px" y="0px"
	 viewBox="0 0 85 85" style="enable-background:new 0 0 85 85;" xml:space="preserve">
<style type="text/css">
	.st0{fill:#F3FF9B;stroke:#8BC53F;stroke-width:0.3007;stroke-miterlimit:10;}
	.st1{clip-path:url(#SVGID_2_);fill:#006838;}
	.st2{clip-path:url(#SVGID_2_);}
	.st3{clip-path:url(#SVGID_2_);fill:#57D03B;}
	.st4{clip-path:url(#SVGID_2_);fill:#D6DE23;}
	.st5{clip-path:url(#SVGID_2_);fill:#F9FF9D;}
	.st6{clip-path:url(#SVGID_2_);fill:#FFFFFF;}
	.st7{fill:none;stroke:#006838;stroke-width:1.5037;stroke-miterlimit:10;}
	.st8{fill:none;stroke:#37B34A;stroke-width:0.1504;stroke-miterlimit:10;}
</style>
<circle class="st0" cx="42.5" cy="42.5" r="38.9"/>
<g>
	<defs>
		<circle id="SVGID_1_" cx="42.5" cy="42.5" r="37"/>
	</defs>
	<clipPath id="SVGID_2_">
		<use xlink:href="#SVGID_1_"  style="overflow:visible;"/>
	</clipPath>
	<path class="st1" d="M93.6,111.1C82.6,108.3,75,89.6,67.6,85.8S49.5,96.1,41,96.1c-8.4,0-17.8-9.9-24.6-8.6
		C9.7,88.8,5.7,98.1-2.7,98.1c-8.4,0.1-15.2-14.6-7.4-32.6c7.7-18.1,4-43,17.1-55.1s25.5,4.3,52.6,4.3c20.5,0,16.8,21.5,24.9,30.1
		c8.1,8.6,24.9,0.4,26.3,13.8c1.1,11.3-9.4,12.5-10.1,18.9C100,84,111.9,115.9,93.6,111.1z"/>
	<path class="st2" d="M54.1,78.9c-1.4,0-2.7,0.6-3.9,1.1c-5,2.1-9.4,6.5-14.7,7.1c-5.8,0.7-12.3-5.3-17.1-3.9
		c-4.8,1.3-7.8,7.8-13.9,7.8c-7.6-0.1-11.4-13.4-7.9-28.7s2.2-35,13.6-44.2c11.3-9.2,20.3,2.7,40.6,1.1C64.4,18,65.9,29.3,69.9,38.4
		c0.7,1.5,1.5,2.9,2.4,4.1c6.5,8,19,4.9,18.9,15.2c0,3.9-1.9,6.5-4.3,8.8c-1.3,1.2-2.5,2.1-3.5,3.9c-1,1.8-1.5,3.9-2.6,5.5
		c-1.4,2-3.6,2.9-5.8,3.1c-2.1,0.2-4.3-0.3-6.4-0.6c-3.6-0.5-7.3-0.7-10.9-0.4C56.6,78.1,55.4,78.8,54.1,78.9z"/>
	<path class="st3" d="M53.9,78.6c-1.4,0-2.7,0.6-3.9,1.1c-5,2.1-9.4,6.5-14.7,7.1c-5.8,0.7-12.3-5.3-17.1-3.9
		c-4.8,1.3-7.8,7.8-13.9,7.8c-7.6-0.1-11.4-13.4-7.9-28.7s2.2-35,13.6-44.2c11.3-9.2,20.3,2.7,40.6,1.1C64.3,17.7,65.7,29,69.7,38.1
		c0.7,1.5,1.5,2.9,2.4,4.1c6.5,8,19,4.9,18.9,15.2c0,3.9-1.9,6.5-4.3,8.8c-1.3,1.2-2.5,2.1-3.5,3.9c-1,1.8-1.5,3.9-2.6,5.5
		c-1.4,2-3.6,2.9-5.8,3.1c-2.1,0.2-4.3-0.3-6.4-0.6c-3.6-0.5-7.3-0.7-10.9-0.4C56.4,77.8,55.2,78.5,53.9,78.6z"/>
	<path class="st2" d="M40.1,70.3c-3.1,0-7.1,6.1-10.4,7.5c-3.3,1.4-6.8-0.6-9.7,0.7c-2.8,1.3-4.9,5-8.7,4.9
		C4.5,83.2,3.8,71.1,3,58.5c-0.8-12.7,0.5-27,10-33.3c9.5-6.3,15.1,0.9,28.5-2c10.3-2.3,13,5,16.5,13.3c0.5,1.2,1.1,2.4,1.8,3.5
		c4.8,7.4,13.1,9.3,11.5,16.7c-1.1,5.1-5.5,6.2-7.2,7.7c-2.5,2.2-1.3,8.7-9.7,9.1c-0.4,0-0.8,0.1-1.2,0C50,72.7,44.3,67.6,40.1,70.3
		z"/>
	<path class="st4" d="M39.9,69.9c-3.1,0-7.1,6.1-10.4,7.5c-3.3,1.4-6.8-0.6-9.7,0.7c-2.8,1.3-4.9,5-8.7,4.9
		c-6.9-0.1-7.6-12.2-8.4-24.9c-0.8-12.7,0.5-27,10-33.3c9.5-6.3,15.1,0.9,28.5-2c10.3-2.3,13,5,16.5,13.3c0.5,1.2,1.1,2.4,1.8,3.5
		c4.8,7.4,13.1,9.3,11.5,16.7c-1.1,5.1-5.5,6.2-7.2,7.7c-2.5,2.2-1.3,8.7-9.7,9.1c-0.4,0-0.8,0.1-1.2,0
		C49.8,72.3,44.1,67.3,39.9,69.9z"/>
	<path class="st2" d="M34.3,54.9c0,0-5.2,1.7-8,7.5C23.4,68.2,23,76,18.4,75.8c-6.1-0.3-3.8-11-8.9-21c-5-10-1.3-19,6.5-22.4
		c5.8-3.7,14.3-3.5,20.6-2.4c0.5,0.1,1.1,0.2,1.6,0.4c5.1,2.1,8.3,4.8,11.5,10.5c2,3.6,5.4,10.6,2,14.6
		C45.9,62.3,39.5,51.4,34.3,54.9z"/>
	<path class="st5" d="M34.1,54.6c0,0-5.2,1.7-8,7.5c-2.8,5.8-3.2,13.6-7.9,13.4c-6.1-0.3-3.8-11-8.9-21c-5-10-1.3-19,6.5-22.4
		c5.8-3.7,14.3-3.5,20.6-2.4c0.5,0.1,1.1,0.2,1.6,0.4c5.1,2.1,8.3,4.8,11.5,10.5c2,3.6,5.4,10.6,2,14.6
		C45.8,61.9,39.3,51.1,34.1,54.6z"/>
	<path class="st2" d="M17.4,47.6c1.6,4.7,5.8,7.1,9.6,4.3c3.4-2.5,2.7-3.3,7.5-4.3c4.7-1,2.8-8.4-6.5-9.9
		C18.6,36.2,16,43.4,17.4,47.6z"/>
	<path class="st6" d="M17.2,47.3c1.6,4.7,5.8,7.1,9.6,4.3c3.4-2.5,2.7-3.3,7.5-4.3c4.7-1,2.8-8.4-6.5-9.9
		C18.4,35.9,15.8,43.1,17.2,47.3z"/>
</g>
<circle class="st7" cx="42.5" cy="42.5" r="40.6"/>
<circle class="st8" cx="42.5" cy="42.5" r="42.5"/>
<polygon points="22.6,43.9 25.9,45.6 22.6,47.3 "/>
<path d="M42.7,32.6l-0.7,1.4l1.6-0.8C43.3,33.1,43,32.8,42.7,32.6z"/>
<path d="M33.7,39.7L33,41.2l1.6-0.8C34.3,40.2,34,40,33.7,39.7z"/>
<path d="M51.8,25.1L51,26.7l1.6-0.7C52.4,25.7,52.1,25.4,51.8,25.1z"/>
<path d="M58.2,19.8l-0.6,1.2l1.7-0.7C59,20.2,58.6,20,58.2,19.8z"/>
<path d="M65.2,15.5l-0.9,1.3l2.2-0.9C66.1,15.7,65.7,15.6,65.2,15.5z"/>
</svg>
